<svg viewBox="0 0 500 500" xmlns="http://www.w3.org/2000/svg" xmlns:xlink="http://www.w3.org/1999/xlink" xmlns:bx="https://boxy-svg.com">
  <defs>
    <linearGradient id="gradient-1-0" gradientUnits="userSpaceOnUse" x1="250.775" y1="0" x2="250.775" y2="501.551" gradientTransform="matrix(0.702372, -0.71181, 0.685948, 0.676844, -95.851649, 261.072915)" xlink:href="#gradient-1"/>
    <linearGradient id="gradient-1" bx:pinned="true">
      <stop offset="0" style="stop-color: rgb(139, 195, 74);"/>
      <stop offset="1" style="stop-color: rgb(255, 235, 59);"/>
    </linearGradient>
  </defs>
  <g transform="matrix(1, 0, 0, 1, 0, 0)">
    <path style="fill: rgb(255, 235, 59);" d="M241.371,428.408V300.931c0-10.449-12.539-14.629-18.808-8.359l-89.861,89.861&#10;&#9;&#9;c-4.18,4.18-4.18,12.539,1.045,16.718c27.167,21.943,60.604,35.527,96.131,39.706C235.102,440.947,241.371,434.678,241.371,428.408&#10;&#9;&#9;z"/>
    <path style="fill: rgb(139, 195, 74);" d="M101.355,132.702c-21.943,27.167-35.527,60.604-39.706,96.131&#10;&#9;&#9;c-1.045,6.269,4.18,12.539,11.494,12.539H200.62c10.449,0,14.629-12.539,8.359-18.808l-89.861-89.861&#10;&#9;&#9;C113.894,127.478,105.535,127.478,101.355,132.702z"/>
    <path style="fill: rgb(139, 195, 74);" d="M61.649,272.718c4.18,36.571,18.808,68.963,39.706,96.131c4.18,5.224,11.494,5.224,16.718,1.045&#10;&#9;&#9;l89.861-89.861c7.314-7.314,2.09-18.808-8.359-18.808H73.143C66.873,260.18,60.604,266.449,61.649,272.718z"/>
    <path style="fill: rgb(255, 235, 59);" d="M439.902,228.833c-4.18-36.571-18.808-68.963-39.706-96.131c-4.18-5.224-11.494-5.224-16.718-1.045&#10;&#9;&#9;l-89.861,89.861c-7.314,7.314-2.09,18.808,8.359,18.808h127.478C434.678,241.371,440.947,235.102,439.902,228.833z"/>
    <path style="fill: rgb(139, 195, 74);" d="M241.371,200.62V73.143c0-6.269-5.224-11.494-12.539-11.494&#10;&#9;&#9;c-36.571,4.18-68.963,18.808-96.131,39.706c-5.224,4.18-5.224,11.494-1.045,16.718l89.861,89.861&#10;&#9;&#9;C228.833,215.249,241.371,211.069,241.371,200.62z"/>
    <path style="fill: rgb(139, 195, 74);" d="M260.18,73.143V200.62c0,10.449,12.539,14.629,18.808,8.359l89.861-89.861&#10;&#9;&#9;c4.18-4.18,4.18-12.539-1.045-16.718c-27.167-21.943-60.604-35.527-96.131-39.706C266.449,60.604,260.18,65.829,260.18,73.143z"/>
    <path style="fill: rgb(255, 235, 59);" d="M400.196,368.849c21.943-27.167,35.527-60.604,39.706-96.131c1.045-6.269-4.18-12.539-11.494-12.539&#10;&#9;&#9;H300.931c-10.449,0-14.629,12.539-8.359,18.808l89.861,89.861C387.657,374.073,396.016,374.073,400.196,368.849z"/>
    <path style="fill: rgb(255, 235, 59);" d="M272.718,439.902c36.571-4.18,68.963-18.808,96.131-39.706c5.224-4.18,5.224-11.494,1.045-16.718&#10;&#9;&#9;l-89.861-89.861c-7.314-7.314-18.808-2.09-18.808,8.359v127.478C260.18,434.678,266.449,440.947,272.718,439.902z"/>
    <path style="fill: url('#gradient-1-0');" d="M250.776,0C111.804,0,0,111.804,0,250.776c0,3.135,0,6.269,0,9.404&#10;&#9;&#9;c5.224,133.747,114.939,241.371,250.776,241.371S496.327,393.927,501.551,260.18c0-3.135,0-6.269,0-9.404&#10;&#9;&#9;C501.551,111.804,389.747,0,250.776,0z M250.776,468.114c-117.029,0-212.114-92.996-217.339-207.935c0-3.135,0-6.269,0-9.404&#10;&#9;&#9;c0-120.163,97.176-217.339,217.339-217.339s217.339,97.176,217.339,217.339c0,3.135,0,6.269,0,9.404&#10;&#9;&#9;C462.89,376.163,367.804,468.114,250.776,468.114z"/>
  </g>
</svg>
